<svg xmlns="http://www.w3.org/2000/svg" width="840" height="700" viewBox="0 0 840 700">
<defs>
  <linearGradient id="bgGlow" x1="0" y1="0" x2="1" y2="1"><stop offset="0" stop-color="#0D1012"/><stop offset="1" stop-color="#070709"/></linearGradient>
  <radialGradient id="greenGlow" cx="78%" cy="18%" r="55%"><stop offset="0" stop-color="#006847" stop-opacity=".34"/><stop offset="1" stop-color="#006847" stop-opacity="0"/></radialGradient>
  <pattern id="grid" width="44" height="44" patternUnits="userSpaceOnUse"><path d="M44 0H0V44" fill="none" stroke="#18181C" stroke-width="1"/></pattern>
  <filter id="shadow" x="-20%" y="-20%" width="140%" height="140%"><feDropShadow dx="0" dy="18" stdDeviation="16" flood-color="#000" flood-opacity=".25"/></filter>
</defs>
<rect width="840" height="700" fill="url(#bgGlow)"/>
<rect width="840" height="700" fill="url(#grid)"/>
<rect width="840" height="700" fill="url(#greenGlow)"/>

<rect x="60" y="132" width="720" height="430" rx="28" fill="#0A0B0E" stroke="#26262A" filter="url(#shadow)"/>
<rect x="96" y="166" width="128" height="34" rx="17" fill="#006847"/>
<rect x="236" y="166" width="136" height="34" rx="17" fill="#15161B" stroke="#35353D"/>
<rect x="384" y="166" width="110" height="34" rx="17" fill="#15161B" stroke="#35353D"/>
<rect x="96" y="224" width="196" height="220" rx="20" fill="#121318" stroke="#2B2B31"/>
<rect x="114" y="248" width="160" height="90" rx="14" fill="#1A1D22"/>
<rect x="126" y="276" width="136" height="14" rx="7" fill="#33343C"/>
<rect x="126" y="370" width="78" height="22" rx="11" fill="#006847"/>
<rect x="322" y="224" width="196" height="220" rx="20" fill="#121318" stroke="#2B2B31"/>
<rect x="340" y="248" width="160" height="90" rx="14" fill="#1A1D22"/>
<rect x="352" y="276" width="136" height="14" rx="7" fill="#33343C"/>
<rect x="352" y="370" width="78" height="22" rx="11" fill="#006847"/>
<rect x="548" y="224" width="196" height="220" rx="20" fill="#121318" stroke="#2B2B31"/>
<rect x="566" y="248" width="160" height="90" rx="14" fill="#1A1D22"/>
<rect x="578" y="276" width="136" height="14" rx="7" fill="#33343C"/>
<rect x="578" y="370" width="78" height="22" rx="11" fill="#006847"/>
<rect x="96" y="472" width="648" height="54" rx="18" fill="#111217" stroke="#292A31"/>
<rect x="118" y="493" width="266" height="12" rx="6" fill="#2F3037"/>
<rect x="596" y="485" width="124" height="26" rx="13" fill="#006847"/>

<text x="34" y="44" font-family="JetBrains Mono, monospace" font-size="12" letter-spacing="3" fill="#74C7A9">KAR LABS / PRODUCT CATALOG</text>
<text x="34" y="88" font-family="Inter, Arial, sans-serif" font-size="24" font-weight="700" fill="#FAFAFA">BUDS Motor Product Catalog</text>
<text x="34" y="668" font-family="JetBrains Mono, monospace" font-size="11" letter-spacing="3" fill="#62626B">PROJECT 02 / KAR LABS</text>
<text x="806" y="44" text-anchor="end" font-family="JetBrains Mono, monospace" font-size="12" letter-spacing="3" fill="#E4E4E7">02 / 08</text>
</svg>